<svg width="44" height="44" viewBox="0 0 44 44" fill="none" xmlns="http://www.w3.org/2000/svg">
<g filter="url(#filter0_i_74_19445)">
<path d="M32.6869 2.17039C32.6869 1.61811 33.1346 1.17039 33.6869 1.17039H43C43.5523 1.17039 44 1.61811 44 2.17039V41.9576C44 42.5099 43.5523 42.9576 43 42.9576H33.6869C33.1346 42.9576 32.6869 42.5099 32.6869 41.9576V40.2348C32.6869 39.2454 31.2878 38.7765 30.5787 39.4664C29.4756 40.5397 28.2301 41.4405 26.8843 42.1774C24.5882 43.3911 22 44.0413 19.37 43.998C8.26565 43.998 0 35.025 0 22.1074C0 9.18972 8.09866 0 19.6205 0C23.6323 0 27.619 1.40596 30.4925 4.03628C31.2289 4.71038 32.6869 4.22204 32.6869 3.22369V2.17039ZM32.3112 22.1507C32.3112 20.7202 32.0607 19.2898 31.5598 17.946C31.0588 16.6022 30.2656 15.3885 29.3055 14.3915C28.3453 13.3945 27.1347 12.5275 25.8823 12.0073C24.5882 11.4005 23.2106 11.1404 21.833 11.1404C19.0778 11.2271 16.4478 12.4842 14.5275 14.5215C12.6072 16.6022 11.5636 19.3764 11.5636 22.2374C11.5636 25.0983 12.649 27.8726 14.611 29.9099C16.5731 31.9906 19.203 33.161 21.9583 33.2044C24.7135 33.161 27.3852 31.9906 29.3473 29.9099C31.2258 27.7859 32.3112 25.0116 32.3112 22.1507Z" fill="#072845"/>
</g>
<defs>
<filter id="filter0_i_74_19445" x="-2" y="-2" width="46" height="46" filterUnits="userSpaceOnUse" color-interpolation-filters="sRGB">
<feFlood flood-opacity="0" result="BackgroundImageFix"/>
<feBlend mode="normal" in="SourceGraphic" in2="BackgroundImageFix" result="shape"/>
<feColorMatrix in="SourceAlpha" type="matrix" values="0 0 0 0 0 0 0 0 0 0 0 0 0 0 0 0 0 0 127 0" result="hardAlpha"/>
<feOffset dx="-2" dy="-2"/>
<feGaussianBlur stdDeviation="1.5"/>
<feComposite in2="hardAlpha" operator="arithmetic" k2="-1" k3="1"/>
<feColorMatrix type="matrix" values="0 0 0 0 0 0 0 0 0 0.529018 0 0 0 0 0.9875 0 0 0 0.25 0"/>
<feBlend mode="normal" in2="shape" result="effect1_innerShadow_74_19445"/>
</filter>
</defs>
</svg>
