<svg width="275" height="275" viewBox="0 0 275 275" fill="none" xmlns="http://www.w3.org/2000/svg">
<g filter="url(#filter0_i_72_19358)">
<path fill-rule="evenodd" clip-rule="evenodd" d="M190.041 271C190.041 273.209 188.25 275 186.041 275H182.862C180.653 275 178.862 273.209 178.862 271L178.862 194.04C178.862 191.831 177.071 190.04 174.862 190.04H99.0203C96.8112 190.04 95.0203 191.831 95.0203 194.04L95.0203 271C95.0203 273.209 93.2294 275 91.0203 275H87.8414C85.6323 275 83.8414 273.209 83.8414 271L83.8414 194.04C83.8414 191.831 82.0506 190.04 79.8414 190.04H4C1.79086 190.04 0 188.249 0 186.04V182.861C0 180.652 1.79087 178.861 4 178.861H79.8414C82.0506 178.861 83.8414 177.07 83.8414 174.861L83.8414 99.0203C83.8414 96.8111 82.0506 95.0203 79.8414 95.0203H4C1.79086 95.0203 0 93.2294 0 91.0203V87.8414C0 85.6323 1.79086 83.8414 4 83.8414H79.8414C82.0506 83.8414 83.8414 82.0505 83.8414 79.8414L83.8414 4C83.8414 1.79086 85.6323 0 87.8414 0H91.0203C93.2295 0 95.0203 1.79086 95.0203 4L95.0203 79.8414C95.0203 82.0505 96.8112 83.8414 99.0203 83.8414H174.862C177.071 83.8414 178.862 82.0505 178.862 79.8414L178.862 4C178.862 1.79086 180.653 0 182.862 0H186.041C188.25 0 190.041 1.79086 190.041 4L190.041 79.8414C190.041 82.0505 191.831 83.8414 194.041 83.8414L271 83.8414C273.209 83.8414 275 85.6323 275 87.8414V91.0203C275 93.2294 273.209 95.0203 271 95.0203L194.041 95.0203C191.831 95.0203 190.041 96.8111 190.041 99.0203V174.861C190.041 177.07 191.831 178.861 194.041 178.861H271C273.209 178.861 275 180.652 275 182.861V186.04C275 188.249 273.209 190.04 271 190.04H194.041C191.831 190.04 190.041 191.831 190.041 194.04L190.041 271ZM99.0203 95.0203C96.8112 95.0203 95.0203 96.8111 95.0203 99.0203L95.0203 174.861C95.0203 177.07 96.8112 178.861 99.0203 178.861H174.862C177.071 178.861 178.862 177.07 178.862 174.861V99.0203C178.862 96.8111 177.071 95.0203 174.862 95.0203H99.0203Z" fill="url(#paint0_radial_72_19358)"/>
</g>
<defs>
<filter id="filter0_i_72_19358" x="0" y="0" width="275" height="283.442" filterUnits="userSpaceOnUse" color-interpolation-filters="sRGB">
<feFlood flood-opacity="0" result="BackgroundImageFix"/>
<feBlend mode="normal" in="SourceGraphic" in2="BackgroundImageFix" result="shape"/>
<feColorMatrix in="SourceAlpha" type="matrix" values="0 0 0 0 0 0 0 0 0 0 0 0 0 0 0 0 0 0 127 0" result="hardAlpha"/>
<feOffset dy="8.4422"/>
<feGaussianBlur stdDeviation="4.2211"/>
<feComposite in2="hardAlpha" operator="arithmetic" k2="-1" k3="1"/>
<feColorMatrix type="matrix" values="0 0 0 0 0.917647 0 0 0 0 0.945098 0 0 0 0 0.992157 0 0 0 1 0"/>
<feBlend mode="normal" in2="shape" result="effect1_innerShadow_72_19358"/>
</filter>
<radialGradient id="paint0_radial_72_19358" cx="0" cy="0" r="1" gradientUnits="userSpaceOnUse" gradientTransform="translate(126.242 42.7121) rotate(16.5527) scale(216.064 98.1507)">
<stop stop-color="#C6DEF7"/>
<stop offset="1" stop-color="#A3C4ED"/>
</radialGradient>
</defs>
</svg>
