<svg width="93" height="141" viewBox="0 0 93 141" fill="none" xmlns="http://www.w3.org/2000/svg">
<path d="M21.9342 78.7415C27.3894 75.8775 32.276 72.1932 36.9045 68.1332C46.7427 59.5036 57.1222 51.3984 65.0994 40.8804C68.448 36.4764 71.847 32.0179 72.6611 26.3046C73.813 18.1344 67.6067 11.8295 59.3714 12.7149C55.7396 13.101 52.521 14.6033 49.3801 16.3111C40.3685 21.1914 32.9495 27.9475 25.8263 36.6422C25.9039 33.3921 25.9165 31.273 25.9941 29.1539C26.2648 21.7055 25.3731 14.4501 22.4902 7.50105C20.732 3.27538 18.0317 0.0400185 13.1052 0.00015377C8.37389 -0.025024 5.64633 3.04456 3.88808 7.08978C3.43488 8.13046 3.02154 9.19633 2.71101 10.2748C0.0358742 19.4332 0.178532 28.7574 1.10801 38.1319C2.33752 50.4228 3.88808 62.6634 8.67185 74.1822C11.4771 80.9634 15.3167 82.1971 21.9342 78.7415Z" fill="#FF64E6"/>
<path d="M73.5921 96.0534C73.1579 93.4028 73.0766 90.5781 72.1876 88.0181C70.3633 82.7681 65.6977 81.6405 61.4553 85.1865C58.1959 87.9147 56.4267 91.6032 55.3223 95.5788C52.4762 105.796 51.5835 116.288 51.5948 126.861C51.601 129.058 51.9634 131.304 54.219 132.274C56.6686 133.323 59.3087 132.409 60.8105 130.694C66.4725 124.204 73.7716 119.708 80.2575 114.238C84.0931 110.997 87.065 107.136 88.7998 102.379C89.7856 99.6732 89.5355 97.1541 87.5752 94.9867C85.6586 92.8512 83.0734 92.4404 80.5036 93.2165C78.0135 93.9697 75.6523 95.1927 73.5921 96.0534Z" fill="#FF64E6"/>
</svg>
