<svg width="88" height="88" viewBox="0 0 88 88" fill="none" xmlns="http://www.w3.org/2000/svg">
<path d="M69.2027 25.4545L74.909 19.2727M74.909 19.2727L69.2027 13.0909M74.909 19.2727H56.3636" stroke="#0075FF" stroke-width="4" stroke-linecap="round" stroke-linejoin="round"/>
<path d="M18.7972 13.0909L13.0909 19.2727M13.0909 19.2727L18.7972 25.4545M13.0909 19.2727L31.6364 19.2727" stroke="#0075FF" stroke-width="4" stroke-linecap="round" stroke-linejoin="round"/>
<path d="M38.8484 51.7272V44M38.8484 44V18.2424C38.8484 15.3973 41.1549 13.0909 44 13.0909C46.8451 13.0909 49.1515 15.3973 49.1515 18.2424V38.8485H66.4242C71.1103 38.8485 74.909 42.6473 74.909 47.3333V51.7272C74.909 64.5302 64.5302 74.9091 51.7272 74.9091H49.1515C37.7711 74.9091 28.5454 65.6834 28.5454 54.303C28.5454 48.6128 33.1582 44 38.8484 44Z" stroke="#0075FF" stroke-width="4" stroke-linecap="round" stroke-linejoin="round"/>
</svg>
