<svg width="49" height="49" viewBox="0 0 49 49" fill="none" xmlns="http://www.w3.org/2000/svg">
<g filter="url(#filter0_ii_528_4807)">
<circle r="18.5405" transform="matrix(1 0 0 -1 23.8379 25.1626)" fill="url(#paint0_linear_528_4807)"/>
</g>
<g filter="url(#filter1_ii_528_4807)">
<path d="M44.1865 6.33312C40.8305 4.45411 30.1893 -0.104793 23.171 12.7337C22.8254 13.3658 23.083 14.166 23.7419 14.4574C34.7651 19.3334 42.2829 10.989 44.5336 7.98939C44.9524 7.43131 44.7953 6.67397 44.1865 6.33312Z" fill="#269A60"/>
</g>
<path d="M24.8264 24.5861C25.7615 24.5861 26.5754 24.7419 27.2681 25.0536C27.9657 25.3653 28.5025 25.7982 28.8785 26.3524C29.2545 26.9065 29.4425 27.5398 29.4425 28.2522C29.4425 29.0339 29.2248 29.7266 28.7894 30.3302C28.359 30.9338 27.7356 31.4038 26.9192 31.7403C26.1029 32.0767 25.1381 32.2449 24.0249 32.2449C22.9563 32.2449 22.0088 32.0866 21.1826 31.7699C20.3613 31.4483 19.7131 31.013 19.2382 30.4638C18.7682 29.9097 18.5035 29.2887 18.4441 28.601H21.5091C21.5982 28.9919 21.8629 29.3036 22.3032 29.5361C22.7485 29.7637 23.3224 29.8775 24.0249 29.8775C24.5098 29.8775 24.9279 29.8132 25.2791 29.6845C25.6354 29.551 25.905 29.363 26.0881 29.1205C26.2761 28.8731 26.3701 28.5812 26.3701 28.2448C26.3701 27.9232 26.2835 27.6412 26.1103 27.3988C25.9372 27.1514 25.6799 26.9609 25.3385 26.8273C24.9971 26.6888 24.5865 26.6195 24.1066 26.6195C23.5376 26.6195 23.0379 26.7086 22.6075 26.8867C22.177 27.0648 21.8208 27.2875 21.5388 27.5546H18.882L19.8467 20.868H28.5668V23.1538H21.9099L21.5388 25.5806C21.9346 25.2689 22.4071 25.0264 22.9563 24.8533C23.5054 24.6752 24.1288 24.5861 24.8264 24.5861Z" fill="white"/>
<path d="M27.2681 25.0536L26.9401 25.7825L26.942 25.7833L27.2681 25.0536ZM28.8785 26.3524L29.5398 25.9036L28.8785 26.3524ZM28.7894 30.3302L28.1412 29.8626L28.1387 29.8662L28.7894 30.3302ZM26.9192 31.7403L27.2238 32.4792L26.9192 31.7403ZM21.1826 31.7699L20.8912 32.5142L20.8966 32.5162L21.1826 31.7699ZM19.2382 30.4638L18.6287 30.9808L18.6337 30.9866L19.2382 30.4638ZM18.4441 28.601V27.8018C18.2202 27.8018 18.0065 27.8957 17.8552 28.0607C17.7038 28.2258 17.6286 28.4467 17.6478 28.6698L18.4441 28.601ZM21.5091 28.601L22.2884 28.4235C22.2055 28.0598 21.8821 27.8018 21.5091 27.8018V28.601ZM22.3032 29.5361L21.9299 30.2429L21.9395 30.2478L22.3032 29.5361ZM25.2791 29.6845L25.554 30.4351L25.5598 30.4329L25.2791 29.6845ZM26.0881 29.1205L25.4517 28.6369L25.4502 28.6389L26.0881 29.1205ZM26.1103 27.3988L25.4555 27.8571L25.46 27.8633L26.1103 27.3988ZM25.3385 26.8273L25.038 27.568L25.0473 27.5716L25.3385 26.8273ZM22.6075 26.8867L22.913 27.6252H22.913L22.6075 26.8867ZM21.5388 27.5546V28.3538C21.7433 28.3538 21.94 28.2755 22.0884 28.1348L21.5388 27.5546ZM18.882 27.5546L18.0909 27.4405C18.0578 27.67 18.126 27.9026 18.2778 28.0779C18.4296 28.2531 18.6501 28.3538 18.882 28.3538V27.5546ZM19.8467 20.868V20.0688C19.4494 20.0688 19.1124 20.3606 19.0557 20.7539L19.8467 20.868ZM28.5668 20.868H29.366C29.366 20.4266 29.0082 20.0688 28.5668 20.0688V20.868ZM28.5668 23.1538V23.953C29.0082 23.953 29.366 23.5952 29.366 23.1538H28.5668ZM21.9099 23.1538V22.3546C21.5151 22.3546 21.1795 22.6428 21.1198 23.033L21.9099 23.1538ZM21.5388 25.5806L20.7487 25.4598C20.6992 25.7841 20.8528 26.1058 21.1363 26.271C21.4198 26.4363 21.7755 26.4115 22.0333 26.2084L21.5388 25.5806ZM22.9563 24.8533L23.1966 25.6155L23.2028 25.6135L22.9563 24.8533ZM24.8264 25.3853C25.6739 25.3853 26.3715 25.5266 26.9401 25.7825L27.596 24.3248C26.7793 23.9573 25.8491 23.7869 24.8264 23.7869V25.3853ZM26.942 25.7833C27.5235 26.0431 27.9359 26.3866 28.2171 26.8011L29.5398 25.9036C29.0691 25.2099 28.4078 24.6875 27.5941 24.3239L26.942 25.7833ZM28.2171 26.8011C28.4974 27.2142 28.6433 27.689 28.6433 28.2522H30.2417C30.2417 27.3905 30.0115 26.5988 29.5398 25.9036L28.2171 26.8011ZM28.6433 28.2522C28.6433 28.8751 28.4733 29.4023 28.1412 29.8627L29.4376 30.7977C29.9763 30.0509 30.2417 29.1928 30.2417 28.2522H28.6433ZM28.1387 29.8662C27.811 30.3258 27.319 30.7111 26.6147 31.0013L27.2238 32.4792C28.1522 32.0965 28.907 31.5418 29.4401 30.7942L28.1387 29.8662ZM26.6147 31.0013C25.9166 31.289 25.0599 31.4457 24.0249 31.4457V33.0441C25.2164 33.0441 26.2892 32.8643 27.2238 32.4792L26.6147 31.0013ZM24.0249 31.4457C23.0343 31.4457 22.1867 31.2989 21.4686 31.0236L20.8966 32.5162C21.8309 32.8743 22.8782 33.0441 24.0249 33.0441V31.4457ZM21.474 31.0257C20.7478 30.7414 20.2164 30.3731 19.8427 29.941L18.6337 30.9866C19.2099 31.6528 19.9748 32.1553 20.8912 32.5141L21.474 31.0257ZM19.8477 29.9468C19.4789 29.512 19.2847 29.0458 19.2404 28.5323L17.6478 28.6698C17.7222 29.5316 18.0574 30.3073 18.6287 30.9808L19.8477 29.9468ZM18.4441 29.4003H21.5091V27.8018H18.4441V29.4003ZM20.7299 28.7786C20.8829 29.4502 21.3378 29.9301 21.93 30.2428L22.6764 28.8294C22.3879 28.6771 22.3134 28.5336 22.2884 28.4235L20.7299 28.7786ZM21.9395 30.2478C22.5335 30.5514 23.244 30.6767 24.0249 30.6767V29.0783C23.4007 29.0783 22.9634 28.976 22.6669 28.8245L21.9395 30.2478ZM24.0249 30.6767C24.5772 30.6767 25.0929 30.6039 25.554 30.435L25.0043 28.9341C24.7628 29.0225 24.4424 29.0783 24.0249 29.0783V30.6767ZM25.5598 30.4329C26.0222 30.2594 26.4309 29.9927 26.7259 29.6021L25.4502 28.6389C25.3791 28.7332 25.2485 28.8425 24.9985 28.9362L25.5598 30.4329ZM26.7244 29.6041C27.027 29.2059 27.1693 28.7406 27.1693 28.2448H25.5709C25.5709 28.4219 25.5251 28.5404 25.4518 28.6369L26.7244 29.6041ZM27.1693 28.2448C27.1693 27.7706 27.0385 27.3232 26.7607 26.9342L25.46 27.8633C25.5285 27.9593 25.5709 28.0758 25.5709 28.2448H27.1693ZM26.7651 26.9405C26.4838 26.5387 26.0861 26.2616 25.6297 26.0831L25.0473 27.5716C25.2737 27.6602 25.3905 27.7641 25.4556 27.8571L26.7651 26.9405ZM25.639 26.0868C25.1781 25.8997 24.6598 25.8203 24.1066 25.8203V27.4188C24.5131 27.4188 24.8162 27.4779 25.038 27.5679L25.639 26.0868ZM24.1066 25.8203C23.4553 25.8203 22.8481 25.9222 22.3019 26.1482L22.913 27.6252C23.2277 27.495 23.6199 27.4188 24.1066 27.4188V25.8203ZM22.3019 26.1482C21.7986 26.3565 21.3547 26.6281 20.9891 26.9744L22.0884 28.1348C22.2869 27.9468 22.5554 27.7732 22.913 27.6252L22.3019 26.1482ZM21.5388 26.7554H18.882V28.3538H21.5388V26.7554ZM19.673 27.6688L20.6378 20.9821L19.0557 20.7539L18.0909 27.4405L19.673 27.6688ZM19.8467 21.6672H28.5668V20.0688H19.8467V21.6672ZM27.7676 20.868V23.1538H29.366V20.868H27.7676ZM28.5668 22.3546H21.9099V23.953H28.5668V22.3546ZM21.1198 23.033L20.7487 25.4598L22.3288 25.7014L22.6999 23.2746L21.1198 23.033ZM22.0333 26.2084C22.3431 25.9644 22.7265 25.7637 23.1966 25.6155L22.7159 24.091C22.0876 24.2891 21.5261 24.5733 21.0443 24.9527L22.0333 26.2084ZM23.2028 25.6135C23.6578 25.4659 24.1957 25.3853 24.8264 25.3853V23.7869C24.062 23.7869 23.3531 23.8844 22.7097 24.093L23.2028 25.6135Z" fill="white" fill-opacity="0.25"/>
<defs>
<filter id="filter0_ii_528_4807" x="5.29736" y="3.90084" width="37.0811" height="44.336" filterUnits="userSpaceOnUse" color-interpolation-filters="sRGB">
<feFlood flood-opacity="0" result="BackgroundImageFix"/>
<feBlend mode="normal" in="SourceGraphic" in2="BackgroundImageFix" result="shape"/>
<feColorMatrix in="SourceAlpha" type="matrix" values="0 0 0 0 0 0 0 0 0 0 0 0 0 0 0 0 0 0 127 0" result="hardAlpha"/>
<feOffset dy="-2.72025"/>
<feGaussianBlur stdDeviation="5.6672"/>
<feComposite in2="hardAlpha" operator="arithmetic" k2="-1" k3="1"/>
<feColorMatrix type="matrix" values="0 0 0 0 0.4 0 0 0 0 0.0116667 0 0 0 0 0.174767 0 0 0 0.25 0"/>
<feBlend mode="normal" in2="shape" result="effect1_innerShadow_528_4807"/>
<feColorMatrix in="SourceAlpha" type="matrix" values="0 0 0 0 0 0 0 0 0 0 0 0 0 0 0 0 0 0 127 0" result="hardAlpha"/>
<feOffset dy="4.53376"/>
<feGaussianBlur stdDeviation="2.26688"/>
<feComposite in2="hardAlpha" operator="arithmetic" k2="-1" k3="1"/>
<feColorMatrix type="matrix" values="0 0 0 0 0.964706 0 0 0 0 0.596078 0 0 0 0 0.603922 0 0 0 0.41 0"/>
<feBlend mode="normal" in2="effect1_innerShadow_528_4807" result="effect2_innerShadow_528_4807"/>
</filter>
<filter id="filter1_ii_528_4807" x="23.0173" y="-0.730454" width="21.751" height="22.2542" filterUnits="userSpaceOnUse" color-interpolation-filters="sRGB">
<feFlood flood-opacity="0" result="BackgroundImageFix"/>
<feBlend mode="normal" in="SourceGraphic" in2="BackgroundImageFix" result="shape"/>
<feColorMatrix in="SourceAlpha" type="matrix" values="0 0 0 0 0 0 0 0 0 0 0 0 0 0 0 0 0 0 127 0" result="hardAlpha"/>
<feOffset dy="5.57061"/>
<feGaussianBlur stdDeviation="2.7853"/>
<feComposite in2="hardAlpha" operator="arithmetic" k2="-1" k3="1"/>
<feColorMatrix type="matrix" values="0 0 0 0 0.892148 0 0 0 0 0.954065 0 0 0 0 0.644477 0 0 0 0.2 0"/>
<feBlend mode="normal" in2="shape" result="effect1_innerShadow_528_4807"/>
<feColorMatrix in="SourceAlpha" type="matrix" values="0 0 0 0 0 0 0 0 0 0 0 0 0 0 0 0 0 0 127 0" result="hardAlpha"/>
<feMorphology radius="3.37332" operator="dilate" in="SourceAlpha" result="effect2_innerShadow_528_4807"/>
<feOffset dy="-4.72264"/>
<feGaussianBlur stdDeviation="4.04798"/>
<feComposite in2="hardAlpha" operator="arithmetic" k2="-1" k3="1"/>
<feColorMatrix type="matrix" values="0 0 0 0 0.0818203 0 0 0 0 0.349899 0 0 0 0 0.21586 0 0 0 0.25 0"/>
<feBlend mode="normal" in2="effect1_innerShadow_528_4807" result="effect2_innerShadow_528_4807"/>
</filter>
<linearGradient id="paint0_linear_528_4807" x1="18.5405" y1="0" x2="18.5405" y2="37.0811" gradientUnits="userSpaceOnUse">
<stop stop-color="#FF3F3F"/>
<stop offset="1" stop-color="#FF3F84"/>
</linearGradient>
</defs>
</svg>
