<svg width="44" height="44" viewBox="0 0 44 44" fill="none" xmlns="http://www.w3.org/2000/svg">
<g filter="url(#filter0_ii_528_4804)">
<path d="M22 41C21.7333 41 21.4667 40.9516 21.2 40.8548C20.9333 40.758 20.7 40.6289 20.5 40.4675C15.6333 36.3045 12 32.4402 9.6 28.8749C7.2 25.3082 6 21.9758 6 18.8777C6 14.0369 7.60867 10.1805 10.826 7.30828C14.042 4.43609 17.7667 3 22 3C26.2333 3 29.958 4.43609 33.174 7.30828C36.3913 10.1805 38 14.0369 38 18.8777C38 21.9758 36.8 25.3082 34.4 28.8749C32 32.4402 28.3667 36.3045 23.5 40.4675C23.3 40.6289 23.0667 40.758 22.8 40.8548C22.5333 40.9516 22.2667 41 22 41Z" fill="url(#paint0_linear_528_4804)"/>
</g>
<path d="M22.8264 17.5861C23.7615 17.5861 24.5754 17.7419 25.2681 18.0536C25.9657 18.3653 26.5025 18.7982 26.8785 19.3524C27.2545 19.9065 27.4425 20.5398 27.4425 21.2522C27.4425 22.0339 27.2248 22.7266 26.7894 23.3302C26.359 23.9338 25.7356 24.4038 24.9192 24.7403C24.1029 25.0767 23.1381 25.2449 22.0249 25.2449C20.9563 25.2449 20.0088 25.0866 19.1826 24.7699C18.3613 24.4483 17.7131 24.013 17.2382 23.4638C16.7682 22.9097 16.5035 22.2887 16.4441 21.601H19.5091C19.5982 21.9919 19.8629 22.3036 20.3032 22.5361C20.7485 22.7637 21.3224 22.8775 22.0249 22.8775C22.5098 22.8775 22.9279 22.8132 23.2791 22.6845C23.6354 22.551 23.905 22.363 24.0881 22.1205C24.2761 21.8731 24.3701 21.5812 24.3701 21.2448C24.3701 20.9232 24.2835 20.6412 24.1103 20.3988C23.9372 20.1514 23.6799 19.9609 23.3385 19.8273C22.9971 19.6888 22.5865 19.6195 22.1066 19.6195C21.5376 19.6195 21.0379 19.7086 20.6075 19.8867C20.177 20.0648 19.8208 20.2875 19.5388 20.5546H16.882L17.8467 13.868H26.5668V16.1538H19.9099L19.5388 18.5806C19.9346 18.2689 20.4071 18.0264 20.9563 17.8533C21.5054 17.6752 22.1288 17.5861 22.8264 17.5861Z" fill="white"/>
<path d="M25.2681 18.0536L24.9401 18.7825L24.942 18.7833L25.2681 18.0536ZM26.8785 19.3524L27.5398 18.9036L26.8785 19.3524ZM26.7894 23.3302L26.1412 22.8626L26.1387 22.8662L26.7894 23.3302ZM24.9192 24.7403L25.2238 25.4792L24.9192 24.7403ZM19.1826 24.7699L18.8912 25.5142L18.8966 25.5162L19.1826 24.7699ZM17.2382 23.4638L16.6287 23.9808L16.6337 23.9866L17.2382 23.4638ZM16.4441 21.601V20.8018C16.2202 20.8018 16.0065 20.8957 15.8552 21.0607C15.7038 21.2258 15.6286 21.4467 15.6478 21.6698L16.4441 21.601ZM19.5091 21.601L20.2884 21.4235C20.2055 21.0598 19.8821 20.8018 19.5091 20.8018V21.601ZM20.3032 22.5361L19.9299 23.2429L19.9395 23.2478L20.3032 22.5361ZM23.2791 22.6845L23.554 23.4351L23.5598 23.4329L23.2791 22.6845ZM24.0881 22.1205L23.4517 21.6369L23.4502 21.6389L24.0881 22.1205ZM24.1103 20.3988L23.4555 20.8571L23.46 20.8633L24.1103 20.3988ZM23.3385 19.8273L23.038 20.568L23.0473 20.5716L23.3385 19.8273ZM20.6075 19.8867L20.913 20.6252H20.913L20.6075 19.8867ZM19.5388 20.5546V21.3538C19.7433 21.3538 19.94 21.2755 20.0884 21.1348L19.5388 20.5546ZM16.882 20.5546L16.0909 20.4405C16.0578 20.67 16.126 20.9026 16.2778 21.0779C16.4296 21.2531 16.6501 21.3538 16.882 21.3538V20.5546ZM17.8467 13.868V13.0688C17.4494 13.0688 17.1124 13.3606 17.0557 13.7539L17.8467 13.868ZM26.5668 13.868H27.366C27.366 13.4266 27.0082 13.0688 26.5668 13.0688V13.868ZM26.5668 16.1538V16.953C27.0082 16.953 27.366 16.5952 27.366 16.1538H26.5668ZM19.9099 16.1538V15.3546C19.5151 15.3546 19.1795 15.6428 19.1198 16.033L19.9099 16.1538ZM19.5388 18.5806L18.7487 18.4598C18.6992 18.7841 18.8528 19.1058 19.1363 19.271C19.4198 19.4363 19.7755 19.4115 20.0333 19.2084L19.5388 18.5806ZM20.9563 17.8533L21.1966 18.6155L21.2028 18.6135L20.9563 17.8533ZM22.8264 18.3853C23.6739 18.3853 24.3715 18.5266 24.9401 18.7825L25.596 17.3248C24.7793 16.9573 23.8491 16.7869 22.8264 16.7869V18.3853ZM24.942 18.7833C25.5235 19.0431 25.9359 19.3866 26.2171 19.8011L27.5398 18.9036C27.0691 18.2099 26.4078 17.6875 25.5941 17.3239L24.942 18.7833ZM26.2171 19.8011C26.4974 20.2142 26.6433 20.689 26.6433 21.2522H28.2417C28.2417 20.3905 28.0115 19.5988 27.5398 18.9036L26.2171 19.8011ZM26.6433 21.2522C26.6433 21.8751 26.4733 22.4023 26.1412 22.8627L27.4376 23.7977C27.9763 23.0509 28.2417 22.1928 28.2417 21.2522H26.6433ZM26.1387 22.8662C25.811 23.3258 25.319 23.7111 24.6147 24.0013L25.2238 25.4792C26.1522 25.0965 26.907 24.5418 27.4401 23.7942L26.1387 22.8662ZM24.6147 24.0013C23.9166 24.289 23.0599 24.4457 22.0249 24.4457V26.0441C23.2164 26.0441 24.2892 25.8643 25.2238 25.4792L24.6147 24.0013ZM22.0249 24.4457C21.0343 24.4457 20.1867 24.2989 19.4686 24.0236L18.8966 25.5162C19.8309 25.8743 20.8782 26.0441 22.0249 26.0441V24.4457ZM19.474 24.0257C18.7478 23.7414 18.2164 23.3731 17.8427 22.941L16.6337 23.9866C17.2099 24.6528 17.9748 25.1553 18.8912 25.5141L19.474 24.0257ZM17.8477 22.9468C17.4789 22.512 17.2847 22.0458 17.2404 21.5323L15.6478 21.6698C15.7222 22.5316 16.0574 23.3073 16.6287 23.9808L17.8477 22.9468ZM16.4441 22.4003H19.5091V20.8018H16.4441V22.4003ZM18.7299 21.7786C18.8829 22.4502 19.3378 22.9301 19.93 23.2428L20.6764 21.8294C20.3879 21.6771 20.3134 21.5336 20.2884 21.4235L18.7299 21.7786ZM19.9395 23.2478C20.5335 23.5514 21.244 23.6767 22.0249 23.6767V22.0783C21.4007 22.0783 20.9634 21.976 20.6669 21.8245L19.9395 23.2478ZM22.0249 23.6767C22.5772 23.6767 23.0929 23.6039 23.554 23.435L23.0043 21.9341C22.7628 22.0225 22.4424 22.0783 22.0249 22.0783V23.6767ZM23.5598 23.4329C24.0222 23.2594 24.4309 22.9927 24.7259 22.6021L23.4502 21.6389C23.3791 21.7332 23.2485 21.8425 22.9985 21.9362L23.5598 23.4329ZM24.7244 22.6041C25.027 22.2059 25.1693 21.7406 25.1693 21.2448H23.5709C23.5709 21.4219 23.5251 21.5404 23.4518 21.6369L24.7244 22.6041ZM25.1693 21.2448C25.1693 20.7706 25.0385 20.3232 24.7607 19.9342L23.46 20.8633C23.5285 20.9593 23.5709 21.0758 23.5709 21.2448H25.1693ZM24.7651 19.9405C24.4838 19.5387 24.0861 19.2616 23.6297 19.0831L23.0473 20.5716C23.2737 20.6602 23.3905 20.7641 23.4556 20.8571L24.7651 19.9405ZM23.639 19.0868C23.1781 18.8997 22.6598 18.8203 22.1066 18.8203V20.4188C22.5131 20.4188 22.8162 20.4779 23.038 20.5679L23.639 19.0868ZM22.1066 18.8203C21.4553 18.8203 20.8481 18.9222 20.3019 19.1482L20.913 20.6252C21.2277 20.495 21.6199 20.4188 22.1066 20.4188V18.8203ZM20.3019 19.1482C19.7986 19.3565 19.3547 19.6281 18.9891 19.9744L20.0884 21.1348C20.2869 20.9468 20.5554 20.7732 20.913 20.6252L20.3019 19.1482ZM19.5388 19.7554H16.882V21.3538H19.5388V19.7554ZM17.673 20.6688L18.6378 13.9821L17.0557 13.7539L16.0909 20.4405L17.673 20.6688ZM17.8467 14.6672H26.5668V13.0688H17.8467V14.6672ZM25.7676 13.868V16.1538H27.366V13.868H25.7676ZM26.5668 15.3546H19.9099V16.953H26.5668V15.3546ZM19.1198 16.033L18.7487 18.4598L20.3288 18.7014L20.6999 16.2746L19.1198 16.033ZM20.0333 19.2084C20.3431 18.9644 20.7265 18.7637 21.1966 18.6155L20.7159 17.091C20.0876 17.2891 19.5261 17.5733 19.0443 17.9527L20.0333 19.2084ZM21.2028 18.6135C21.6578 18.4659 22.1957 18.3853 22.8264 18.3853V16.7869C22.062 16.7869 21.3531 16.8844 20.7097 17.093L21.2028 18.6135Z" fill="white" fill-opacity="0.25"/>
<defs>
<filter id="filter0_ii_528_4804" x="6" y="0.945931" width="32" height="43.4775" filterUnits="userSpaceOnUse" color-interpolation-filters="sRGB">
<feFlood flood-opacity="0" result="BackgroundImageFix"/>
<feBlend mode="normal" in="SourceGraphic" in2="BackgroundImageFix" result="shape"/>
<feColorMatrix in="SourceAlpha" type="matrix" values="0 0 0 0 0 0 0 0 0 0 0 0 0 0 0 0 0 0 127 0" result="hardAlpha"/>
<feOffset dy="-2.05407"/>
<feGaussianBlur stdDeviation="4.27931"/>
<feComposite in2="hardAlpha" operator="arithmetic" k2="-1" k3="1"/>
<feColorMatrix type="matrix" values="0 0 0 0 0.135933 0 0 0 0 0.4 0 0 0 0 0.0116667 0 0 0 0.25 0"/>
<feBlend mode="normal" in2="shape" result="effect1_innerShadow_528_4804"/>
<feColorMatrix in="SourceAlpha" type="matrix" values="0 0 0 0 0 0 0 0 0 0 0 0 0 0 0 0 0 0 127 0" result="hardAlpha"/>
<feOffset dy="3.42345"/>
<feGaussianBlur stdDeviation="1.71172"/>
<feComposite in2="hardAlpha" operator="arithmetic" k2="-1" k3="1"/>
<feColorMatrix type="matrix" values="0 0 0 0 0.824627 0 0 0 0 0.964706 0 0 0 0 0.596078 0 0 0 0.41 0"/>
<feBlend mode="normal" in2="effect1_innerShadow_528_4804" result="effect2_innerShadow_528_4804"/>
</filter>
<linearGradient id="paint0_linear_528_4804" x1="22" y1="3" x2="22" y2="41" gradientUnits="userSpaceOnUse">
<stop stop-color="#139050"/>
<stop offset="1" stop-color="#5FAE2D"/>
</linearGradient>
</defs>
</svg>
