<svg width="303" height="173" viewBox="0 0 303 173" fill="none" xmlns="http://www.w3.org/2000/svg">
<g filter="url(#filter0_i_632_4196)">
<path fill-rule="evenodd" clip-rule="evenodd" d="M237.864 40.1854C234.009 40.1854 230.885 43.31 230.885 47.1643L230.885 64.7407L123.294 64.7407L123.294 58.419C123.294 53.6732 121.681 49.0682 118.721 45.3589L91.6944 11.4957C87.807 6.62493 81.9519 3.73907 75.7211 3.6228L47.5657 3.09739C40.9162 2.9733 34.6033 6.01584 30.5577 11.2945L4.31921 45.5296C1.51809 49.1844 -2.21035e-06 53.6607 -2.41164e-06 58.2655L-5.04867e-06 118.594C-5.25426e-06 123.297 1.58361 127.863 4.49563 131.557L30.6142 164.684C34.6693 169.827 40.8975 172.776 47.4459 172.654L75.8409 172.124C81.9684 172.009 87.7381 169.216 91.6283 164.481L118.535 131.726C121.612 127.981 123.294 123.284 123.294 118.437L123.294 110.103L295.77 110.104C299.763 110.104 303 106.198 303 101.38L303 73.4643L303 73.4568L303 47.1643C303 43.31 299.875 40.1854 296.021 40.1854L237.864 40.1854ZM235.537 47.1643C235.537 45.8795 236.579 44.838 237.864 44.838L296.021 44.838C297.306 44.838 298.347 45.8795 298.347 47.1643L298.347 62.2852C298.347 63.57 297.306 64.6115 296.021 64.6115L237.864 64.6115C236.579 64.6115 235.537 63.57 235.537 62.2852L235.537 47.1643ZM40.7102 103.382L54.0326 120.389L68.8772 120.11L82.5835 103.317L82.5835 72.9855L68.8273 55.6376L54.0825 55.3607L40.7102 72.9217L40.7102 103.382ZM31.0587 109.923C29.7758 108.286 29.0787 106.265 29.0787 104.185L29.0787 72.1368C29.0787 70.1002 29.7469 68.1198 30.9807 66.4995L45.5434 47.3753C47.3405 45.0152 50.1553 43.6534 53.1213 43.7091L70.1429 44.0288C72.922 44.081 75.5322 45.3728 77.2593 47.5508L92.2009 66.3935C93.5052 68.0384 94.215 70.0759 94.215 72.1751L94.215 104.146C94.215 106.29 93.4745 108.368 92.1187 110.03L77.207 128.3C75.4785 130.418 72.9061 131.668 70.1729 131.72L53.0913 132.04C50.1702 132.095 47.393 130.775 45.5914 128.475L31.0587 109.923ZM15.4563 122.915C14.4856 121.684 13.9578 120.162 13.9578 118.594L13.9578 58.2655C13.9578 56.7306 14.4638 55.2385 15.3975 54.0202L41.636 19.7851C42.9845 18.0255 45.0888 17.0114 47.3053 17.0527L75.4607 17.5781C77.5376 17.6169 79.4894 18.5788 80.7852 20.2024L107.812 54.0657C108.798 55.3021 109.336 56.8371 109.336 58.419L109.336 118.437C109.336 120.052 108.775 121.618 107.75 122.867L80.843 155.621C79.5463 157.199 77.623 158.13 75.5805 158.168L47.1855 158.698C45.0027 158.739 42.9266 157.756 41.5749 156.042L15.4563 122.915ZM219.253 72.8841C221.823 72.8841 223.906 74.9671 223.906 77.5367L223.906 97.3102C223.906 99.8797 221.823 101.963 219.253 101.963L127.365 101.963C124.795 101.963 122.712 99.8797 122.712 97.3102L122.712 77.5367C122.712 74.9671 124.795 72.8841 127.365 72.8841L219.253 72.8841ZM298.347 77.5351C298.347 74.9656 296.264 72.8826 293.695 72.8826L240.19 72.8826C237.62 72.8826 235.537 74.9656 235.537 77.5351L235.537 97.3087C235.537 99.8782 237.62 101.961 240.19 101.961L293.695 101.961C296.264 101.961 298.347 99.8782 298.347 97.3087L298.347 77.5351Z" fill="url(#paint0_radial_632_4196)"/>
<path fill-rule="evenodd" clip-rule="evenodd" d="M237.864 40.1854C234.009 40.1854 230.885 43.31 230.885 47.1643L230.885 64.7407L123.294 64.7407L123.294 58.419C123.294 53.6732 121.681 49.0682 118.721 45.3589L91.6944 11.4957C87.807 6.62493 81.9519 3.73907 75.7211 3.6228L47.5657 3.09739C40.9162 2.9733 34.6033 6.01584 30.5577 11.2945L4.31921 45.5296C1.51809 49.1844 -2.21035e-06 53.6607 -2.41164e-06 58.2655L-5.04867e-06 118.594C-5.25426e-06 123.297 1.58361 127.863 4.49563 131.557L30.6142 164.684C34.6693 169.827 40.8975 172.776 47.4459 172.654L75.8409 172.124C81.9684 172.009 87.7381 169.216 91.6283 164.481L118.535 131.726C121.612 127.981 123.294 123.284 123.294 118.437L123.294 110.103L295.77 110.104C299.763 110.104 303 106.198 303 101.38L303 73.4643L303 73.4568L303 47.1643C303 43.31 299.875 40.1854 296.021 40.1854L237.864 40.1854ZM235.537 47.1643C235.537 45.8795 236.579 44.838 237.864 44.838L296.021 44.838C297.306 44.838 298.347 45.8795 298.347 47.1643L298.347 62.2852C298.347 63.57 297.306 64.6115 296.021 64.6115L237.864 64.6115C236.579 64.6115 235.537 63.57 235.537 62.2852L235.537 47.1643ZM40.7102 103.382L54.0326 120.389L68.8772 120.11L82.5835 103.317L82.5835 72.9855L68.8273 55.6376L54.0825 55.3607L40.7102 72.9217L40.7102 103.382ZM31.0587 109.923C29.7758 108.286 29.0787 106.265 29.0787 104.185L29.0787 72.1368C29.0787 70.1002 29.7469 68.1198 30.9807 66.4995L45.5434 47.3753C47.3405 45.0152 50.1553 43.6534 53.1213 43.7091L70.1429 44.0288C72.922 44.081 75.5322 45.3728 77.2593 47.5508L92.2009 66.3935C93.5052 68.0384 94.215 70.0759 94.215 72.1751L94.215 104.146C94.215 106.29 93.4745 108.368 92.1187 110.03L77.207 128.3C75.4785 130.418 72.9061 131.668 70.1729 131.72L53.0913 132.04C50.1702 132.095 47.393 130.775 45.5914 128.475L31.0587 109.923ZM15.4563 122.915C14.4856 121.684 13.9578 120.162 13.9578 118.594L13.9578 58.2655C13.9578 56.7306 14.4638 55.2385 15.3975 54.0202L41.636 19.7851C42.9845 18.0255 45.0888 17.0114 47.3053 17.0527L75.4607 17.5781C77.5376 17.6169 79.4894 18.5788 80.7852 20.2024L107.812 54.0657C108.798 55.3021 109.336 56.8371 109.336 58.419L109.336 118.437C109.336 120.052 108.775 121.618 107.75 122.867L80.843 155.621C79.5463 157.199 77.623 158.13 75.5805 158.168L47.1855 158.698C45.0027 158.739 42.9266 157.756 41.5749 156.042L15.4563 122.915ZM219.253 72.8841C221.823 72.8841 223.906 74.9671 223.906 77.5367L223.906 97.3102C223.906 99.8797 221.823 101.963 219.253 101.963L127.365 101.963C124.795 101.963 122.712 99.8797 122.712 97.3102L122.712 77.5367C122.712 74.9671 124.795 72.8841 127.365 72.8841L219.253 72.8841ZM298.347 77.5351C298.347 74.9656 296.264 72.8826 293.695 72.8826L240.19 72.8826C237.62 72.8826 235.537 74.9656 235.537 77.5351L235.537 97.3087C235.537 99.8782 237.62 101.961 240.19 101.961L293.695 101.961C296.264 101.961 298.347 99.8782 298.347 97.3087L298.347 77.5351Z" fill="#A3C4ED"/>
</g>
<g filter="url(#filter1_i_632_4196)">
<rect x="158.77" y="119.406" width="62.81" height="11.6315" rx="2.3263" transform="rotate(-90 158.77 119.406)" fill="white"/>
</g>
<g filter="url(#filter2_i_632_4196)">
<rect x="94.2148" y="98.3418" width="20.9367" height="15.1209" transform="rotate(-90 94.2148 98.3418)" fill="white"/>
</g>
<g filter="url(#filter3_i_632_4196)">
<rect x="13.9578" y="98.3418" width="20.9367" height="15.1209" transform="rotate(-90 13.9578 98.3418)" fill="white"/>
</g>
<g filter="url(#filter4_ii_632_4196)">
<circle cx="61.3212" cy="88.117" r="9.79082" transform="rotate(90 61.3212 88.117)" fill="white"/>
</g>
<g filter="url(#filter5_ii_632_4196)">
<path d="M21.3555 90.4377C21.1704 90.4377 20.9854 90.4037 20.8003 90.3358C20.6153 90.268 20.4534 90.1774 20.3146 90.0643C16.9375 87.145 14.4162 84.4353 12.7508 81.9352C11.0854 79.4341 10.2527 77.0974 10.2527 74.9249C10.2527 71.5304 11.369 68.8262 13.6016 66.8121C15.8332 64.798 18.4179 63.791 21.3555 63.791C24.2931 63.791 26.8777 64.798 29.1094 66.8121C31.3419 68.8262 32.4582 71.5304 32.4582 74.9249C32.4582 77.0974 31.6255 79.4341 29.9601 81.9352C28.2947 84.4353 25.7734 87.145 22.3963 90.0643C22.2576 90.1774 22.0956 90.268 21.9106 90.3358C21.7256 90.4037 21.5405 90.4377 21.3555 90.4377Z" fill="url(#paint1_linear_632_4196)"/>
</g>
<g filter="url(#filter6_ii_632_4196)">
<path d="M67.8813 57.8693C67.6963 57.8693 67.5112 57.8354 67.3262 57.7675C67.1412 57.6996 66.9792 57.6091 66.8405 57.4959C63.4634 54.5767 60.9421 51.867 59.2767 49.3668C57.6113 46.8658 56.7786 44.529 56.7786 42.3565C56.7786 38.9621 57.8949 36.2578 60.1274 34.2437C62.3591 32.2297 64.9437 31.2227 67.8813 31.2227C70.8189 31.2227 73.4036 32.2297 75.6352 34.2437C77.8678 36.2578 78.9841 38.9621 78.9841 42.3565C78.9841 44.529 78.1514 46.8658 76.486 49.3668C74.8206 51.867 72.2993 54.5767 68.9222 57.4959C68.7834 57.6091 68.6215 57.6996 68.4365 57.7675C68.2514 57.8354 68.0664 57.8693 67.8813 57.8693Z" fill="url(#paint2_linear_632_4196)"/>
</g>
<g filter="url(#filter7_ii_632_4196)">
<path d="M164.423 53.9552C164.225 53.9552 164.028 53.9193 163.831 53.8477C163.633 53.776 163.461 53.6805 163.313 53.561C159.71 50.4796 157.021 47.6194 155.245 44.9803C153.468 42.3403 152.58 39.8737 152.58 37.5806C152.58 33.9975 153.771 31.143 156.152 29.017C158.532 26.8911 161.289 25.8281 164.423 25.8281C167.556 25.8281 170.313 26.8911 172.694 29.017C175.075 31.143 176.266 33.9975 176.266 37.5806C176.266 39.8737 175.378 42.3403 173.601 44.9803C171.825 47.6194 169.135 50.4796 165.533 53.561C165.385 53.6805 165.212 53.776 165.015 53.8477C164.818 53.9193 164.62 53.9552 164.423 53.9552Z" fill="url(#paint3_linear_632_4196)"/>
</g>
<g clip-path="url(#clip0_632_4196)">
<rect x="183.933" y="25.7656" width="37.95" height="27.9632" rx="4.63348" fill="white"/>
<g filter="url(#filter8_i_632_4196)">
<rect x="184" y="25" width="38" height="29" fill="white"/>
</g>
<path d="M198.767 35.6665H197.672L195.95 33.48V35.6665H195V31H195.95V33.0598L197.603 31H198.698L196.914 33.2665L198.767 35.6665Z" fill="black"/>
<path d="M201.5 32.3297H202.388V35.663H201.5V35.2696C201.232 35.5961 200.86 35.7563 200.377 35.7563C199.895 35.7563 199.523 35.5896 199.193 35.2496C198.87 34.9095 198.704 34.4896 198.704 33.9961C198.704 33.5026 198.869 33.0896 199.193 32.7495C199.524 32.4094 199.916 32.2363 200.377 32.2363C200.839 32.2363 201.231 32.3962 201.5 32.723V32.3297ZM200.543 34.9363C200.819 34.9363 201.046 34.8498 201.225 34.6763C201.41 34.4964 201.5 34.2697 201.5 33.9965C201.5 33.7233 201.411 33.4966 201.225 33.3231C201.045 33.1432 200.818 33.0563 200.543 33.0563C200.268 33.0563 200.04 33.1429 199.861 33.3231C199.682 33.4966 199.593 33.7233 199.593 33.9965C199.593 34.2697 199.682 34.4964 199.861 34.6763C200.041 34.8498 200.268 34.9363 200.543 34.9363Z" fill="black"/>
<path d="M205.584 36.9996H204.716V35.7197C204.186 35.6464 203.773 35.453 203.47 35.1397C203.167 34.8264 203.015 34.4463 203.015 33.9996C203.015 33.553 203.166 33.1728 203.47 32.8596C203.773 32.5463 204.186 32.3528 204.716 32.2795V31H205.584V32.2799C206.114 32.3532 206.527 32.5467 206.83 32.8599C207.133 33.1732 207.284 33.5533 207.284 34C207.284 34.4467 207.133 34.8268 206.83 35.1401C206.527 35.4533 206.114 35.6468 205.584 35.7201V37V36.9996ZM204.716 34.8997V33.0999C204.186 33.2133 203.89 33.5465 203.89 34C203.89 34.4535 204.186 34.7867 204.716 34.9001M205.584 34.8933C206.114 34.7799 206.403 34.4467 206.403 34C206.403 33.5533 206.114 33.2133 205.584 33.0999V34.8929V34.8933Z" fill="black"/>
<path d="M208.662 34.3498C208.779 34.7696 209.103 34.9763 209.633 34.9763C209.97 34.9763 210.232 34.863 210.404 34.6431L211.12 35.0429C210.783 35.5163 210.28 35.7563 209.619 35.7563C209.048 35.7563 208.593 35.5896 208.249 35.2564C207.904 34.9231 207.732 34.5032 207.732 33.9965C207.732 33.4898 207.904 33.0764 208.242 32.7431C208.579 32.403 209.02 32.2363 209.55 32.2363C210.053 32.2363 210.473 32.403 210.797 32.7431C211.127 33.0832 211.292 33.4962 211.292 33.9965C211.292 34.1099 211.279 34.2232 211.258 34.3498H208.662ZM210.404 33.6832C210.301 33.2298 209.956 33.0099 209.55 33.0099C209.075 33.0099 208.752 33.2566 208.648 33.6832H210.404H210.404Z" fill="black"/>
<path d="M203 38C199.14 38 196 41.1404 196 44.9998C196 48.8591 199.14 52 203 52C206.86 52 210 48.8596 210 44.9998C210 41.14 206.86 38 203 38Z" fill="white"/>
<path d="M206.838 40.2068C205.983 42.4293 203.713 42.1415 202.11 42.1971L201.72 43.714C203.697 42.1052 206.31 43.7002 206.03 46.1309C205.842 47.7683 204.675 48.8388 203.441 49.1468C202.095 49.4824 200.605 48.9804 199.937 47.6092C199.844 47.4175 199.763 47.2204 199.695 47.019L201.114 46.655C201.141 46.7369 201.179 46.8151 201.226 46.8876C202.176 48.4192 204.1 47.6534 204.318 46.0648C204.538 44.4481 202.27 43.5867 201.238 45.4759L199.979 44.9372L199.957 44.928L200.425 43.048C200.5 42.7133 200.723 41.8404 200.747 41.7559C200.787 41.6253 200.796 41.5821 200.839 41.4635C201.645 39.3449 203.239 39.1312 204.654 39.1312C204.711 39.1312 204.767 39.1312 204.822 39.1312C203.358 38.6726 201.776 38.777 200.384 39.4238C198.993 40.0707 197.893 41.2135 197.3 42.6286C196.707 44.0436 196.664 45.6291 197.178 47.0745C197.693 48.52 198.728 49.7214 200.082 50.4436C201.436 51.1658 203.01 51.3568 204.497 50.9792C205.984 50.6016 207.277 49.6826 208.122 48.4021C208.967 47.1216 209.304 45.5718 209.067 44.056C208.829 42.5402 208.035 41.1676 206.838 40.2068Z" fill="#E52322"/>
<path d="M206.279 39.7871C206.041 40.5267 205.625 40.9924 204.983 41.2429C204.315 41.503 203.501 41.5099 202.714 41.5187C202.292 41.5219 201.887 41.5251 201.516 41.5697C202.183 39.9572 203.381 39.7981 204.659 39.7981C204.837 39.7981 205.016 39.8018 205.188 39.8055C205.36 39.8092 205.523 39.8119 205.685 39.8119C205.918 39.8119 206.109 39.805 206.279 39.7894" fill="#00923A"/>
</g>
<g filter="url(#filter9_iii_632_4196)">
<path d="M204.09 2.96094C203.347 2.96094 202.634 3.25645 202.109 3.78248C201.583 4.3085 201.288 5.02194 201.288 5.76585V28.2051C201.288 28.5771 201.435 28.9338 201.698 29.1968C201.961 29.4598 202.317 29.6076 202.689 29.6076C203.061 29.6076 203.417 29.4598 203.68 29.1968C203.943 28.9338 204.09 28.5771 204.09 28.2051V21.1929H223.432C223.716 21.193 223.995 21.1143 224.238 20.9657C224.48 20.817 224.677 20.6041 224.806 20.3504C224.935 20.0968 224.991 19.8124 224.969 19.5287C224.947 19.245 224.846 18.973 224.679 18.7428L219.834 12.0769L224.676 5.41103C224.843 5.18094 224.944 4.90907 224.966 4.62545C224.989 4.34184 224.932 4.05754 224.803 3.80398C224.674 3.55042 224.478 3.33748 224.236 3.1887C223.993 3.03992 223.715 2.96109 223.431 2.96094H204.09Z" fill="#E5352E"/>
</g>
<g filter="url(#filter10_ii_632_4196)">
<path d="M237.864 112.537C237.679 112.537 237.494 112.503 237.309 112.435C237.124 112.368 236.962 112.277 236.823 112.164C233.446 109.245 230.925 106.535 229.259 104.035C227.594 101.534 226.761 99.197 226.761 97.0245C226.761 93.63 227.877 90.9258 230.11 88.9117C232.342 86.8977 234.926 85.8906 237.864 85.8906C240.801 85.8906 243.386 86.8977 245.618 88.9117C247.85 90.9258 248.967 93.63 248.967 97.0245C248.967 99.197 248.134 101.534 246.468 104.035C244.803 106.535 242.282 109.245 238.905 112.164C238.766 112.277 238.604 112.368 238.419 112.435C238.234 112.503 238.049 112.537 237.864 112.537Z" fill="url(#paint4_linear_632_4196)"/>
</g>
<g filter="url(#filter11_ii_632_4196)">
<path d="M284.227 112.537C284.042 112.537 283.857 112.503 283.672 112.435C283.487 112.368 283.325 112.277 283.186 112.164C279.809 109.245 277.288 106.535 275.622 104.035C273.957 101.534 273.124 99.197 273.124 97.0245C273.124 93.63 274.241 90.9258 276.473 88.9117C278.705 86.8977 281.289 85.8906 284.227 85.8906C287.165 85.8906 289.749 86.8977 291.981 88.9117C294.214 90.9258 295.33 93.63 295.33 97.0245C295.33 99.197 294.497 101.534 292.832 104.035C291.166 106.535 288.645 109.245 285.268 112.164C285.129 112.277 284.967 112.368 284.782 112.435C284.597 112.503 284.412 112.537 284.227 112.537Z" fill="url(#paint5_linear_632_4196)"/>
</g>
<path d="M151.785 133.477V127.824H152.821L154.847 131.728L156.878 127.824H157.909V133.477H156.705V130.362L155.098 133.477H154.601L152.994 130.362V133.477H151.785ZM161.867 133.634C161.302 133.634 160.808 133.506 160.386 133.251C159.964 132.997 159.636 132.646 159.402 132.199C159.171 131.749 159.056 131.233 159.056 130.65C159.056 130.057 159.175 129.537 159.412 129.09C159.65 128.644 159.979 128.295 160.402 128.043C160.824 127.792 161.312 127.667 161.867 127.667C162.436 127.667 162.931 127.794 163.354 128.049C163.776 128.303 164.104 128.656 164.338 129.106C164.571 129.553 164.688 130.067 164.688 130.65C164.688 131.236 164.57 131.755 164.332 132.205C164.099 132.651 163.771 133.002 163.348 133.257C162.926 133.508 162.432 133.634 161.867 133.634ZM161.867 132.451C162.37 132.451 162.743 132.283 162.987 131.948C163.231 131.613 163.354 131.181 163.354 130.65C163.354 130.102 163.23 129.666 162.982 129.342C162.734 129.014 162.363 128.85 161.867 128.85C161.529 128.85 161.249 128.926 161.03 129.08C160.813 129.23 160.653 129.441 160.548 129.713C160.443 129.982 160.391 130.294 160.391 130.65C160.391 131.198 160.515 131.636 160.763 131.964C161.014 132.288 161.382 132.451 161.867 132.451ZM168.296 133.634C167.714 133.634 167.216 133.504 166.805 133.246C166.393 132.985 166.077 132.629 165.857 132.178C165.641 131.728 165.531 131.219 165.527 130.65C165.531 130.071 165.644 129.558 165.868 129.111C166.095 128.661 166.416 128.309 166.831 128.054C167.246 127.796 167.74 127.667 168.312 127.667C168.954 127.667 169.497 127.829 169.94 128.153C170.387 128.474 170.678 128.914 170.814 129.472L169.558 129.813C169.46 129.509 169.298 129.274 169.071 129.106C168.844 128.935 168.586 128.85 168.296 128.85C167.968 128.85 167.698 128.928 167.485 129.085C167.272 129.239 167.115 129.451 167.014 129.724C166.913 129.996 166.862 130.305 166.862 130.65C166.862 131.187 166.983 131.622 167.223 131.953C167.464 132.285 167.822 132.451 168.296 132.451C168.631 132.451 168.895 132.374 169.087 132.22C169.282 132.067 169.429 131.845 169.526 131.556L170.814 131.844C170.64 132.419 170.334 132.862 169.898 133.173C169.462 133.48 168.928 133.634 168.296 133.634ZM173.24 133.477V128.944H171.351V127.824H176.391V128.944H174.502V133.477H173.24Z" fill="white"/>
<path d="M39.8805 145.529V139.876H44.7902V145.529H43.5287V141.059H41.142V145.529H39.8805ZM48.8299 145.686C48.2576 145.686 47.7551 145.562 47.3224 145.315C46.8898 145.067 46.5513 144.723 46.307 144.284C46.0662 143.844 45.9459 143.338 45.9459 142.766C45.9459 142.148 46.0645 141.612 46.3018 141.159C46.5391 140.702 46.8688 140.347 47.291 140.096C47.7133 139.845 48.2018 139.719 48.7566 139.719C49.3428 139.719 49.8401 139.857 50.2483 140.133C50.6601 140.405 50.9654 140.791 51.1643 141.29C51.3632 141.789 51.4382 142.377 51.3894 143.054H50.1384V142.593C50.1349 141.979 50.0268 141.53 49.8139 141.248C49.6011 140.965 49.2661 140.824 48.8089 140.824C48.2925 140.824 47.9087 140.984 47.6574 141.305C47.4062 141.623 47.2806 142.089 47.2806 142.703C47.2806 143.275 47.4062 143.718 47.6574 144.032C47.9087 144.346 48.2751 144.503 48.7566 144.503C49.0672 144.503 49.3341 144.435 49.5574 144.299C49.7842 144.16 49.9587 143.959 50.0809 143.697L51.3266 144.074C51.1102 144.584 50.7753 144.98 50.3216 145.262C49.8715 145.545 49.3742 145.686 48.8299 145.686ZM46.8828 143.054V142.101H50.7718V143.054H46.8828ZM55.2738 145.686C54.7225 145.686 54.2601 145.555 53.8867 145.294C53.5134 145.032 53.2325 144.676 53.044 144.226C52.8556 143.772 52.7614 143.265 52.7614 142.703C52.7614 142.134 52.8556 141.625 53.044 141.174C53.2325 140.724 53.5081 140.37 53.871 140.112C54.2374 139.85 54.6893 139.719 55.2267 139.719C55.7606 139.719 56.2229 139.85 56.6137 140.112C57.0081 140.37 57.3134 140.724 57.5297 141.174C57.7461 141.621 57.8542 142.131 57.8542 142.703C57.8542 143.268 57.7478 143.776 57.535 144.226C57.3221 144.676 57.022 145.032 56.6347 145.294C56.2474 145.555 55.7937 145.686 55.2738 145.686ZM52.5468 148.042V139.876H53.6617V143.844H53.8187V148.042H52.5468ZM55.0801 144.556C55.4081 144.556 55.6786 144.474 55.8914 144.31C56.1043 144.146 56.2613 143.924 56.3625 143.645C56.4672 143.362 56.5195 143.048 56.5195 142.703C56.5195 142.361 56.4672 142.05 56.3625 141.771C56.2578 141.489 56.0956 141.265 55.8757 141.101C55.6559 140.934 55.3767 140.85 55.0383 140.85C54.7172 140.85 54.4555 140.928 54.2531 141.085C54.0507 141.239 53.9007 141.455 53.803 141.735C53.7088 142.01 53.6617 142.333 53.6617 142.703C53.6617 143.069 53.7088 143.392 53.803 143.671C53.9007 143.95 54.0525 144.168 54.2584 144.325C54.4677 144.479 54.7417 144.556 55.0801 144.556ZM61.5779 145.686C61.0057 145.686 60.5032 145.562 60.0705 145.315C59.6378 145.067 59.2993 144.723 59.0551 144.284C58.8143 143.844 58.6939 143.338 58.6939 142.766C58.6939 142.148 58.8126 141.612 59.0498 141.159C59.2871 140.702 59.6169 140.347 60.0391 140.096C60.4613 139.845 60.9498 139.719 61.5047 139.719C62.0909 139.719 62.5881 139.857 62.9964 140.133C63.4082 140.405 63.7135 140.791 63.9124 141.29C64.1113 141.789 64.1863 142.377 64.1374 143.054H62.8865V142.593C62.883 141.979 62.7748 141.53 62.562 141.248C62.3491 140.965 62.0141 140.824 61.557 140.824C61.0406 140.824 60.6567 140.984 60.4055 141.305C60.1542 141.623 60.0286 142.089 60.0286 142.703C60.0286 143.275 60.1542 143.718 60.4055 144.032C60.6567 144.346 61.0231 144.503 61.5047 144.503C61.8152 144.503 62.0822 144.435 62.3055 144.299C62.5323 144.16 62.7068 143.959 62.8289 143.697L64.0746 144.074C63.8583 144.584 63.5233 144.98 63.0697 145.262C62.6195 145.545 62.1223 145.686 61.5779 145.686ZM59.6308 143.054V142.101H63.5198V143.054H59.6308ZM64.4728 145.529L66.5403 142.671L64.5146 139.876H66.0011L67.273 141.682L68.524 139.876H70.0105L67.9849 142.671L70.0629 145.529H68.5763L67.273 143.661L65.9593 145.529H64.4728ZM73.1895 145.686C72.6242 145.686 72.1305 145.559 71.7083 145.304C71.286 145.049 70.958 144.699 70.7242 144.252C70.4939 143.802 70.3788 143.286 70.3788 142.703C70.3788 142.11 70.4974 141.59 70.7347 141.143C70.972 140.696 71.3017 140.347 71.724 140.096C72.1462 139.845 72.6347 139.719 73.1895 139.719C73.7583 139.719 74.2538 139.847 74.676 140.101C75.0983 140.356 75.4263 140.709 75.6601 141.159C75.8938 141.605 76.0107 142.12 76.0107 142.703C76.0107 143.289 75.8921 143.807 75.6548 144.257C75.421 144.704 75.093 145.055 74.6708 145.309C74.2486 145.561 73.7548 145.686 73.1895 145.686ZM73.1895 144.503C73.692 144.503 74.0654 144.336 74.3096 144.001C74.5539 143.666 74.676 143.233 74.676 142.703C74.676 142.155 74.5522 141.719 74.3044 141.394C74.0567 141.066 73.685 140.902 73.1895 140.902C72.8511 140.902 72.5719 140.979 72.3521 141.133C72.1357 141.283 71.9752 141.494 71.8705 141.766C71.7658 142.035 71.7135 142.347 71.7135 142.703C71.7135 143.251 71.8374 143.689 72.0851 144.017C72.3364 144.341 72.7045 144.503 73.1895 144.503ZM76.7452 146.785V144.54C77.0523 144.54 77.2704 144.435 77.3995 144.226C77.5286 144.017 77.6316 143.654 77.7083 143.137C77.7572 142.83 77.7973 142.506 77.8287 142.164C77.8601 141.822 77.8863 141.461 77.9072 141.08C77.9317 140.7 77.9526 140.299 77.97 139.876H82.1783V144.54H82.7488V146.785H81.5554V145.529H77.9334V146.785H76.7452ZM78.4359 144.54H80.9221V140.866H79.0744C79.064 141.075 79.0518 141.29 79.0378 141.509C79.0239 141.726 79.0081 141.942 78.9907 142.158C78.9733 142.375 78.9541 142.582 78.9331 142.781C78.9157 142.977 78.8947 143.158 78.8703 143.326C78.8319 143.619 78.7848 143.86 78.729 144.048C78.6732 144.236 78.5755 144.4 78.4359 144.54Z" fill="white"/>
<path d="M104.102 108.359L87.6088 131.622" stroke="white" stroke-width="1.16315" stroke-linecap="round"/>
<path d="M35.6858 131.623L19.1925 108.36" stroke="white" stroke-width="1.16315" stroke-linecap="round"/>
<defs>
<filter id="filter0_i_632_4196" x="0" y="3.09375" width="303" height="170.728" filterUnits="userSpaceOnUse" color-interpolation-filters="sRGB">
<feFlood flood-opacity="0" result="BackgroundImageFix"/>
<feBlend mode="normal" in="SourceGraphic" in2="BackgroundImageFix" result="shape"/>
<feColorMatrix in="SourceAlpha" type="matrix" values="0 0 0 0 0 0 0 0 0 0 0 0 0 0 0 0 0 0 127 0" result="hardAlpha"/>
<feOffset dy="1.16315"/>
<feGaussianBlur stdDeviation="5.81574"/>
<feComposite in2="hardAlpha" operator="arithmetic" k2="-1" k3="1"/>
<feColorMatrix type="matrix" values="0 0 0 0 0.917647 0 0 0 0 0.945098 0 0 0 0 0.992157 0 0 0 1 0"/>
<feBlend mode="normal" in2="shape" result="effect1_innerShadow_632_4196"/>
</filter>
<filter id="filter1_i_632_4196" x="158.77" y="56.5957" width="11.6316" height="63.9737" filterUnits="userSpaceOnUse" color-interpolation-filters="sRGB">
<feFlood flood-opacity="0" result="BackgroundImageFix"/>
<feBlend mode="normal" in="SourceGraphic" in2="BackgroundImageFix" result="shape"/>
<feColorMatrix in="SourceAlpha" type="matrix" values="0 0 0 0 0 0 0 0 0 0 0 0 0 0 0 0 0 0 127 0" result="hardAlpha"/>
<feOffset dy="1.16315"/>
<feGaussianBlur stdDeviation="5.81574"/>
<feComposite in2="hardAlpha" operator="arithmetic" k2="-1" k3="1"/>
<feColorMatrix type="matrix" values="0 0 0 0 0.917647 0 0 0 0 0.945098 0 0 0 0 0.992157 0 0 0 1 0"/>
<feBlend mode="normal" in2="shape" result="effect1_innerShadow_632_4196"/>
</filter>
<filter id="filter2_i_632_4196" x="94.2148" y="77.4043" width="15.1208" height="22.1006" filterUnits="userSpaceOnUse" color-interpolation-filters="sRGB">
<feFlood flood-opacity="0" result="BackgroundImageFix"/>
<feBlend mode="normal" in="SourceGraphic" in2="BackgroundImageFix" result="shape"/>
<feColorMatrix in="SourceAlpha" type="matrix" values="0 0 0 0 0 0 0 0 0 0 0 0 0 0 0 0 0 0 127 0" result="hardAlpha"/>
<feOffset dy="1.16315"/>
<feGaussianBlur stdDeviation="5.81574"/>
<feComposite in2="hardAlpha" operator="arithmetic" k2="-1" k3="1"/>
<feColorMatrix type="matrix" values="0 0 0 0 0.917647 0 0 0 0 0.945098 0 0 0 0 0.992157 0 0 0 1 0"/>
<feBlend mode="normal" in2="shape" result="effect1_innerShadow_632_4196"/>
</filter>
<filter id="filter3_i_632_4196" x="13.9578" y="77.4043" width="15.1208" height="22.1006" filterUnits="userSpaceOnUse" color-interpolation-filters="sRGB">
<feFlood flood-opacity="0" result="BackgroundImageFix"/>
<feBlend mode="normal" in="SourceGraphic" in2="BackgroundImageFix" result="shape"/>
<feColorMatrix in="SourceAlpha" type="matrix" values="0 0 0 0 0 0 0 0 0 0 0 0 0 0 0 0 0 0 127 0" result="hardAlpha"/>
<feOffset dy="1.16315"/>
<feGaussianBlur stdDeviation="5.81574"/>
<feComposite in2="hardAlpha" operator="arithmetic" k2="-1" k3="1"/>
<feColorMatrix type="matrix" values="0 0 0 0 0.917647 0 0 0 0 0.945098 0 0 0 0 0.992157 0 0 0 1 0"/>
<feBlend mode="normal" in2="shape" result="effect1_innerShadow_632_4196"/>
</filter>
<filter id="filter4_ii_632_4196" x="51.5305" y="74.8367" width="19.5815" height="28.8872" filterUnits="userSpaceOnUse" color-interpolation-filters="sRGB">
<feFlood flood-opacity="0" result="BackgroundImageFix"/>
<feBlend mode="normal" in="SourceGraphic" in2="BackgroundImageFix" result="shape"/>
<feColorMatrix in="SourceAlpha" type="matrix" values="0 0 0 0 0 0 0 0 0 0 0 0 0 0 0 0 0 0 127 0" result="hardAlpha"/>
<feOffset dy="5.81574"/>
<feGaussianBlur stdDeviation="2.90787"/>
<feComposite in2="hardAlpha" operator="arithmetic" k2="-1" k3="1"/>
<feColorMatrix type="matrix" values="0 0 0 0 0.98 0 0 0 0 1 0 0 0 0 0 0 0 0 0.25 0"/>
<feBlend mode="normal" in2="shape" result="effect1_innerShadow_632_4196"/>
<feColorMatrix in="SourceAlpha" type="matrix" values="0 0 0 0 0 0 0 0 0 0 0 0 0 0 0 0 0 0 127 0" result="hardAlpha"/>
<feOffset dy="-3.48944"/>
<feGaussianBlur stdDeviation="2.90787"/>
<feComposite in2="hardAlpha" operator="arithmetic" k2="-1" k3="1"/>
<feColorMatrix type="matrix" values="0 0 0 0 1 0 0 0 0 0.12 0 0 0 0 0 0 0 0 0.25 0"/>
<feBlend mode="normal" in2="effect1_innerShadow_632_4196" result="effect2_innerShadow_632_4196"/>
</filter>
<filter id="filter5_ii_632_4196" x="10.2527" y="62.2706" width="22.2056" height="30.7009" filterUnits="userSpaceOnUse" color-interpolation-filters="sRGB">
<feFlood flood-opacity="0" result="BackgroundImageFix"/>
<feBlend mode="normal" in="SourceGraphic" in2="BackgroundImageFix" result="shape"/>
<feColorMatrix in="SourceAlpha" type="matrix" values="0 0 0 0 0 0 0 0 0 0 0 0 0 0 0 0 0 0 127 0" result="hardAlpha"/>
<feOffset dy="-1.52039"/>
<feGaussianBlur stdDeviation="3.16748"/>
<feComposite in2="hardAlpha" operator="arithmetic" k2="-1" k3="1"/>
<feColorMatrix type="matrix" values="0 0 0 0 0.4 0 0 0 0 0.0116667 0 0 0 0 0.174767 0 0 0 0.25 0"/>
<feBlend mode="normal" in2="shape" result="effect1_innerShadow_632_4196"/>
<feColorMatrix in="SourceAlpha" type="matrix" values="0 0 0 0 0 0 0 0 0 0 0 0 0 0 0 0 0 0 127 0" result="hardAlpha"/>
<feOffset dy="2.53399"/>
<feGaussianBlur stdDeviation="1.26699"/>
<feComposite in2="hardAlpha" operator="arithmetic" k2="-1" k3="1"/>
<feColorMatrix type="matrix" values="0 0 0 0 0.964706 0 0 0 0 0.596078 0 0 0 0 0.603922 0 0 0 0.41 0"/>
<feBlend mode="normal" in2="effect1_innerShadow_632_4196" result="effect2_innerShadow_632_4196"/>
</filter>
<filter id="filter6_ii_632_4196" x="56.7786" y="29.1686" width="22.2056" height="32.124" filterUnits="userSpaceOnUse" color-interpolation-filters="sRGB">
<feFlood flood-opacity="0" result="BackgroundImageFix"/>
<feBlend mode="normal" in="SourceGraphic" in2="BackgroundImageFix" result="shape"/>
<feColorMatrix in="SourceAlpha" type="matrix" values="0 0 0 0 0 0 0 0 0 0 0 0 0 0 0 0 0 0 127 0" result="hardAlpha"/>
<feOffset dy="-2.05407"/>
<feGaussianBlur stdDeviation="4.27931"/>
<feComposite in2="hardAlpha" operator="arithmetic" k2="-1" k3="1"/>
<feColorMatrix type="matrix" values="0 0 0 0 0.4 0 0 0 0 0.0116667 0 0 0 0 0.174767 0 0 0 0.25 0"/>
<feBlend mode="normal" in2="shape" result="effect1_innerShadow_632_4196"/>
<feColorMatrix in="SourceAlpha" type="matrix" values="0 0 0 0 0 0 0 0 0 0 0 0 0 0 0 0 0 0 127 0" result="hardAlpha"/>
<feOffset dy="3.42345"/>
<feGaussianBlur stdDeviation="1.71172"/>
<feComposite in2="hardAlpha" operator="arithmetic" k2="-1" k3="1"/>
<feColorMatrix type="matrix" values="0 0 0 0 0.964706 0 0 0 0 0.596078 0 0 0 0 0.603922 0 0 0 0.41 0"/>
<feBlend mode="normal" in2="effect1_innerShadow_632_4196" result="effect2_innerShadow_632_4196"/>
</filter>
<filter id="filter7_ii_632_4196" x="152.58" y="23.7741" width="23.686" height="33.6045" filterUnits="userSpaceOnUse" color-interpolation-filters="sRGB">
<feFlood flood-opacity="0" result="BackgroundImageFix"/>
<feBlend mode="normal" in="SourceGraphic" in2="BackgroundImageFix" result="shape"/>
<feColorMatrix in="SourceAlpha" type="matrix" values="0 0 0 0 0 0 0 0 0 0 0 0 0 0 0 0 0 0 127 0" result="hardAlpha"/>
<feOffset dy="-2.05407"/>
<feGaussianBlur stdDeviation="4.27931"/>
<feComposite in2="hardAlpha" operator="arithmetic" k2="-1" k3="1"/>
<feColorMatrix type="matrix" values="0 0 0 0 0.135933 0 0 0 0 0.4 0 0 0 0 0.0116667 0 0 0 0.25 0"/>
<feBlend mode="normal" in2="shape" result="effect1_innerShadow_632_4196"/>
<feColorMatrix in="SourceAlpha" type="matrix" values="0 0 0 0 0 0 0 0 0 0 0 0 0 0 0 0 0 0 127 0" result="hardAlpha"/>
<feOffset dy="3.42345"/>
<feGaussianBlur stdDeviation="1.71172"/>
<feComposite in2="hardAlpha" operator="arithmetic" k2="-1" k3="1"/>
<feColorMatrix type="matrix" values="0 0 0 0 0.824627 0 0 0 0 0.964706 0 0 0 0 0.596078 0 0 0 0.41 0"/>
<feBlend mode="normal" in2="effect1_innerShadow_632_4196" result="effect2_innerShadow_632_4196"/>
</filter>
<filter id="filter8_i_632_4196" x="184" y="25" width="38" height="30.5445" filterUnits="userSpaceOnUse" color-interpolation-filters="sRGB">
<feFlood flood-opacity="0" result="BackgroundImageFix"/>
<feBlend mode="normal" in="SourceGraphic" in2="BackgroundImageFix" result="shape"/>
<feColorMatrix in="SourceAlpha" type="matrix" values="0 0 0 0 0 0 0 0 0 0 0 0 0 0 0 0 0 0 127 0" result="hardAlpha"/>
<feOffset dy="1.54449"/>
<feGaussianBlur stdDeviation="7.72247"/>
<feComposite in2="hardAlpha" operator="arithmetic" k2="-1" k3="1"/>
<feColorMatrix type="matrix" values="0 0 0 0 0.917647 0 0 0 0 0.945098 0 0 0 0 0.992157 0 0 0 1 0"/>
<feBlend mode="normal" in2="shape" result="effect1_innerShadow_632_4196"/>
</filter>
<filter id="filter9_iii_632_4196" x="201.288" y="1.25206" width="23.686" height="31.1774" filterUnits="userSpaceOnUse" color-interpolation-filters="sRGB">
<feFlood flood-opacity="0" result="BackgroundImageFix"/>
<feBlend mode="normal" in="SourceGraphic" in2="BackgroundImageFix" result="shape"/>
<feColorMatrix in="SourceAlpha" type="matrix" values="0 0 0 0 0 0 0 0 0 0 0 0 0 0 0 0 0 0 127 0" result="hardAlpha"/>
<feOffset dy="2.822"/>
<feGaussianBlur stdDeviation="1.411"/>
<feComposite in2="hardAlpha" operator="arithmetic" k2="-1" k3="1"/>
<feColorMatrix type="matrix" values="0 0 0 0 0.958218 0 0 0 0 0.979066 0 0 0 0 0.718477 0 0 0 0.2 0"/>
<feBlend mode="normal" in2="shape" result="effect1_innerShadow_632_4196"/>
<feColorMatrix in="SourceAlpha" type="matrix" values="0 0 0 0 0 0 0 0 0 0 0 0 0 0 0 0 0 0 127 0" result="hardAlpha"/>
<feOffset dy="-0.341776"/>
<feGaussianBlur stdDeviation="2.05066"/>
<feComposite in2="hardAlpha" operator="arithmetic" k2="-1" k3="1"/>
<feColorMatrix type="matrix" values="0 0 0 0 0.958573 0 0 0 0 0.974899 0 0 0 0 0.792599 0 0 0 0.2 0"/>
<feBlend mode="normal" in2="effect1_innerShadow_632_4196" result="effect2_innerShadow_632_4196"/>
<feColorMatrix in="SourceAlpha" type="matrix" values="0 0 0 0 0 0 0 0 0 0 0 0 0 0 0 0 0 0 127 0" result="hardAlpha"/>
<feMorphology radius="1.70888" operator="dilate" in="SourceAlpha" result="effect3_innerShadow_632_4196"/>
<feOffset dy="-1.70888"/>
<feGaussianBlur stdDeviation="2.05066"/>
<feComposite in2="hardAlpha" operator="arithmetic" k2="-1" k3="1"/>
<feColorMatrix type="matrix" values="0 0 0 0 0.312399 0 0 0 0 0.0927615 0 0 0 0 0.0834646 0 0 0 0.15 0"/>
<feBlend mode="normal" in2="effect2_innerShadow_632_4196" result="effect3_innerShadow_632_4196"/>
</filter>
<filter id="filter10_ii_632_4196" x="226.761" y="83.8366" width="22.2056" height="32.124" filterUnits="userSpaceOnUse" color-interpolation-filters="sRGB">
<feFlood flood-opacity="0" result="BackgroundImageFix"/>
<feBlend mode="normal" in="SourceGraphic" in2="BackgroundImageFix" result="shape"/>
<feColorMatrix in="SourceAlpha" type="matrix" values="0 0 0 0 0 0 0 0 0 0 0 0 0 0 0 0 0 0 127 0" result="hardAlpha"/>
<feOffset dy="-2.05407"/>
<feGaussianBlur stdDeviation="4.27931"/>
<feComposite in2="hardAlpha" operator="arithmetic" k2="-1" k3="1"/>
<feColorMatrix type="matrix" values="0 0 0 0 0.4 0 0 0 0 0.0116667 0 0 0 0 0.174767 0 0 0 0.25 0"/>
<feBlend mode="normal" in2="shape" result="effect1_innerShadow_632_4196"/>
<feColorMatrix in="SourceAlpha" type="matrix" values="0 0 0 0 0 0 0 0 0 0 0 0 0 0 0 0 0 0 127 0" result="hardAlpha"/>
<feOffset dy="3.42345"/>
<feGaussianBlur stdDeviation="1.71172"/>
<feComposite in2="hardAlpha" operator="arithmetic" k2="-1" k3="1"/>
<feColorMatrix type="matrix" values="0 0 0 0 0.964706 0 0 0 0 0.596078 0 0 0 0 0.603922 0 0 0 0.41 0"/>
<feBlend mode="normal" in2="effect1_innerShadow_632_4196" result="effect2_innerShadow_632_4196"/>
</filter>
<filter id="filter11_ii_632_4196" x="273.124" y="83.8366" width="22.2056" height="32.124" filterUnits="userSpaceOnUse" color-interpolation-filters="sRGB">
<feFlood flood-opacity="0" result="BackgroundImageFix"/>
<feBlend mode="normal" in="SourceGraphic" in2="BackgroundImageFix" result="shape"/>
<feColorMatrix in="SourceAlpha" type="matrix" values="0 0 0 0 0 0 0 0 0 0 0 0 0 0 0 0 0 0 127 0" result="hardAlpha"/>
<feOffset dy="-2.05407"/>
<feGaussianBlur stdDeviation="4.27931"/>
<feComposite in2="hardAlpha" operator="arithmetic" k2="-1" k3="1"/>
<feColorMatrix type="matrix" values="0 0 0 0 0.4 0 0 0 0 0.0116667 0 0 0 0 0.174767 0 0 0 0.25 0"/>
<feBlend mode="normal" in2="shape" result="effect1_innerShadow_632_4196"/>
<feColorMatrix in="SourceAlpha" type="matrix" values="0 0 0 0 0 0 0 0 0 0 0 0 0 0 0 0 0 0 127 0" result="hardAlpha"/>
<feOffset dy="3.42345"/>
<feGaussianBlur stdDeviation="1.71172"/>
<feComposite in2="hardAlpha" operator="arithmetic" k2="-1" k3="1"/>
<feColorMatrix type="matrix" values="0 0 0 0 0.964706 0 0 0 0 0.596078 0 0 0 0 0.603922 0 0 0 0.41 0"/>
<feBlend mode="normal" in2="effect1_innerShadow_632_4196" result="effect2_innerShadow_632_4196"/>
</filter>
<radialGradient id="paint0_radial_632_4196" cx="0" cy="0" r="1" gradientUnits="userSpaceOnUse" gradientTransform="translate(144.23 94.4008) rotate(86.473) scale(113.215 88.8331)">
<stop stop-color="#C6DEF7"/>
<stop offset="1" stop-color="#A3C4ED"/>
</radialGradient>
<linearGradient id="paint1_linear_632_4196" x1="21.3555" y1="63.791" x2="21.3555" y2="90.4377" gradientUnits="userSpaceOnUse">
<stop stop-color="#FF3F3F"/>
<stop offset="1" stop-color="#FF3F84"/>
</linearGradient>
<linearGradient id="paint2_linear_632_4196" x1="67.8813" y1="31.2227" x2="67.8813" y2="57.8693" gradientUnits="userSpaceOnUse">
<stop stop-color="#FF3F3F"/>
<stop offset="1" stop-color="#FF3F84"/>
</linearGradient>
<linearGradient id="paint3_linear_632_4196" x1="164.423" y1="25.8281" x2="164.423" y2="53.9552" gradientUnits="userSpaceOnUse">
<stop stop-color="#139050"/>
<stop offset="1" stop-color="#5FAE2D"/>
</linearGradient>
<linearGradient id="paint4_linear_632_4196" x1="237.864" y1="85.8906" x2="237.864" y2="112.537" gradientUnits="userSpaceOnUse">
<stop stop-color="#FF3F3F"/>
<stop offset="1" stop-color="#FF3F84"/>
</linearGradient>
<linearGradient id="paint5_linear_632_4196" x1="284.227" y1="85.8906" x2="284.227" y2="112.537" gradientUnits="userSpaceOnUse">
<stop stop-color="#FF3F3F"/>
<stop offset="1" stop-color="#FF3F84"/>
</linearGradient>
<clipPath id="clip0_632_4196">
<rect x="183.933" y="25.7656" width="37.95" height="27.9632" rx="4.63348" fill="white"/>
</clipPath>
</defs>
</svg>
