<svg width="259" height="259" viewBox="0 0 259 259" fill="none" xmlns="http://www.w3.org/2000/svg">
<path d="M2 129.5V22C2 10.95 10.95 2 22 2H129.5V52.46C129.5 55.79 126.42 58.25 123.17 57.54C116.65 56.12 115.47 52.2 108.8 49.91C107.38 49.42 105.87 49.15 104.31 49.15C96.03 49.15 89.32 56.58 89.32 65.75C89.32 74.92 96.03 82.35 104.31 82.35C105.87 82.35 107.38 82.08 108.8 81.59C115.47 79.3 116.65 75.38 123.17 73.96C126.42 73.25 129.5 75.72 129.5 79.04V129.5H79.06C75.73 129.5 73.27 132.58 73.98 135.83C75.4 142.35 79.32 143.53 81.61 150.2C82.1 151.62 82.37 153.13 82.37 154.69C82.37 162.97 74.94 169.68 65.77 169.68C56.6 169.68 49.17 162.97 49.17 154.69C49.17 153.13 49.44 151.62 49.93 150.2C52.23 143.52 56.15 142.34 57.57 135.81C58.27 132.57 55.8 129.5 52.47 129.5H2Z" fill="white" fill-opacity="0.1" stroke="#B1DAFF" stroke-width="4" stroke-miterlimit="10"/>
<path d="M257 129.5H206.54C203.21 129.5 200.75 126.42 201.46 123.17C202.88 116.65 206.8 115.47 209.09 108.8C209.58 107.38 209.85 105.87 209.85 104.31C209.85 96.03 202.42 89.32 193.25 89.32C184.08 89.32 176.65 96.03 176.65 104.31C176.65 105.87 176.92 107.38 177.41 108.8C179.7 115.47 183.62 116.65 185.04 123.17C185.75 126.42 183.28 129.5 179.96 129.5H129.5V79.04C129.5 75.71 126.42 73.25 123.17 73.96C116.65 75.38 115.47 79.3 108.8 81.59C107.38 82.08 105.87 82.35 104.31 82.35C96.0301 82.35 89.3201 74.92 89.3201 65.75C89.3201 56.58 96.0301 49.15 104.31 49.15C105.87 49.15 107.38 49.42 108.8 49.91C115.47 52.2 116.65 56.12 123.17 57.54C126.42 58.25 129.5 55.78 129.5 52.46V2H237C248.05 2 257 10.95 257 22V129.5Z" fill="white" fill-opacity="0.1" stroke="#B1DAFF" stroke-width="4" stroke-miterlimit="10"/>
<path d="M257 129.5V237C257 248.05 248.05 257 237 257H129.5V206.54C129.5 203.21 132.58 200.75 135.83 201.46C142.35 202.88 143.53 206.8 150.2 209.09C151.62 209.58 153.13 209.85 154.69 209.85C162.97 209.85 169.68 202.42 169.68 193.25C169.68 184.08 162.97 176.65 154.69 176.65C153.13 176.65 151.62 176.92 150.2 177.41C143.53 179.7 142.35 183.62 135.83 185.04C132.58 185.75 129.5 183.28 129.5 179.96V129.5H179.94C183.27 129.5 185.73 126.42 185.02 123.17C183.6 116.65 179.68 115.47 177.39 108.8C176.9 107.38 176.63 105.87 176.63 104.31C176.63 96.0303 184.06 89.3203 193.23 89.3203C202.4 89.3203 209.83 96.0303 209.83 104.31C209.83 105.87 209.56 107.38 209.07 108.8C206.77 115.48 202.85 116.66 201.43 123.19C200.73 126.43 203.2 129.5 206.53 129.5H256.99H257Z" fill="white" fill-opacity="0.1" stroke="#B1DAFF" stroke-width="4" stroke-miterlimit="10"/>
<path d="M2 129.5H52.46C55.79 129.5 58.25 132.58 57.54 135.83C56.12 142.35 52.2 143.53 49.91 150.2C49.42 151.62 49.15 153.13 49.15 154.69C49.15 162.97 56.58 169.68 65.75 169.68C74.92 169.68 82.35 162.97 82.35 154.69C82.35 153.13 82.08 151.62 81.59 150.2C79.3 143.53 75.38 142.35 73.96 135.83C73.25 132.58 75.72 129.5 79.04 129.5H129.5V179.96C129.5 183.29 132.58 185.75 135.83 185.04C142.35 183.62 143.53 179.7 150.2 177.41C151.62 176.92 153.13 176.65 154.69 176.65C162.97 176.65 169.68 184.08 169.68 193.25C169.68 202.42 162.97 209.85 154.69 209.85C153.13 209.85 151.62 209.58 150.2 209.09C143.53 206.8 142.35 202.88 135.83 201.46C132.58 200.75 129.5 203.22 129.5 206.54V257H22C10.95 257 2 248.05 2 237V129.5Z" fill="white" fill-opacity="0.1" stroke="#B1DAFF" stroke-width="4" stroke-miterlimit="10"/>
</svg>
