<svg width="139" height="216" viewBox="0 0 139 216" fill="none" xmlns="http://www.w3.org/2000/svg">
<g filter="url(#filter0_ii_14_50)">
<path d="M58.8177 103.958C31.2109 89.7362 3.43826 36.5449 -4.99315 0.105591C-9.78724 58.3533 -17.0606 173.248 -6.81122 176.671C3.4382 180.094 6.90978 152.157 8.89315 138.244C8.89315 153.317 4.97815 190.266 16.1669 193.069C26.0857 195.553 27.9042 174.352 29.392 160.273C29.8879 172.53 30.0533 211.454 43.2783 211.454C54.6849 211.454 54.74 173.193 52.5359 144.538C57.1646 165.297 66.1785 211.247 85.5984 214.932C107.42 219.073 95.2968 168.334 85.5984 141.06C100.146 156.132 124.447 182.137 135.688 168.886C151.408 150.357 93.8642 122.012 58.8177 103.958Z" fill="url(#paint0_linear_14_50)"/>
</g>
<defs>
<filter id="filter0_ii_14_50" x="-12.0046" y="-13.6585" width="150.355" height="245.065" filterUnits="userSpaceOnUse" color-interpolation-filters="sRGB">
<feFlood flood-opacity="0" result="BackgroundImageFix"/>
<feBlend mode="normal" in="SourceGraphic" in2="BackgroundImageFix" result="shape"/>
<feColorMatrix in="SourceAlpha" type="matrix" values="0 0 0 0 0 0 0 0 0 0 0 0 0 0 0 0 0 0 127 0" result="hardAlpha"/>
<feOffset dy="16.2354"/>
<feGaussianBlur stdDeviation="8.11772"/>
<feComposite in2="hardAlpha" operator="arithmetic" k2="-1" k3="1"/>
<feColorMatrix type="matrix" values="0 0 0 0 0.892148 0 0 0 0 0.954065 0 0 0 0 0.644477 0 0 0 0.4 0"/>
<feBlend mode="normal" in2="shape" result="effect1_innerShadow_14_50"/>
<feColorMatrix in="SourceAlpha" type="matrix" values="0 0 0 0 0 0 0 0 0 0 0 0 0 0 0 0 0 0 127 0" result="hardAlpha"/>
<feMorphology radius="9.83147" operator="dilate" in="SourceAlpha" result="effect2_innerShadow_14_50"/>
<feOffset dy="-13.7641"/>
<feGaussianBlur stdDeviation="11.7978"/>
<feComposite in2="hardAlpha" operator="arithmetic" k2="-1" k3="1"/>
<feColorMatrix type="matrix" values="0 0 0 0 0.0818203 0 0 0 0 0.349899 0 0 0 0 0.21586 0 0 0 0.25 0"/>
<feBlend mode="normal" in2="effect1_innerShadow_14_50" result="effect2_innerShadow_14_50"/>
</filter>
<linearGradient id="paint0_linear_14_50" x1="72.9861" y1="25.4898" x2="61.3118" y2="215.056" gradientUnits="userSpaceOnUse">
<stop stop-color="#229E5E"/>
<stop offset="1" stop-color="#2B9860"/>
</linearGradient>
</defs>
</svg>
