<svg width="82" height="139" viewBox="0 0 82 139" fill="none" xmlns="http://www.w3.org/2000/svg">
<g filter="url(#filter0_ii_67_876)">
<path d="M43.4187 22.4475C43.4187 37.4556 86.3024 38.2012 86.3024 38.2012C86.3024 38.2012 24.4736 41.2174 24.4736 56.6181C24.4736 70.0629 68.0268 60.3079 68.0268 60.3079C68.0268 60.3079 -2.5511 80.1375 1.03558 93.2565C4.87686 107.299 46.6045 86.2023 46.6045 86.2023C46.6045 86.2023 -12.6235 123.909 9.525 136.86C31.3224 149.606 66.9336 89.4201 66.9336 89.4201C66.9336 89.4201 45.236 128.082 69.0697 124.413C93.8876 120.591 109.996 52.5159 109.996 52.5159C109.996 52.5159 114.931 83.3306 137.791 74.6073C143.092 72.5843 146.881 66.6296 149.58 58.6724L137.383 0.328146L105.345 11.2147C67.2495 20.0914 43.4187 8.99798 43.4187 22.4475Z" fill="url(#paint0_linear_67_876)"/>
</g>
<defs>
<filter id="filter0_ii_67_876" x="0.90332" y="-7.17228" width="148.676" height="154.652" filterUnits="userSpaceOnUse" color-interpolation-filters="sRGB">
<feFlood flood-opacity="0" result="BackgroundImageFix"/>
<feBlend mode="normal" in="SourceGraphic" in2="BackgroundImageFix" result="shape"/>
<feColorMatrix in="SourceAlpha" type="matrix" values="0 0 0 0 0 0 0 0 0 0 0 0 0 0 0 0 0 0 127 0" result="hardAlpha"/>
<feOffset dy="8.84713"/>
<feGaussianBlur stdDeviation="4.42356"/>
<feComposite in2="hardAlpha" operator="arithmetic" k2="-1" k3="1"/>
<feColorMatrix type="matrix" values="0 0 0 0 0.892148 0 0 0 0 0.954065 0 0 0 0 0.644477 0 0 0 0.4 0"/>
<feBlend mode="normal" in2="shape" result="effect1_innerShadow_67_876"/>
<feColorMatrix in="SourceAlpha" type="matrix" values="0 0 0 0 0 0 0 0 0 0 0 0 0 0 0 0 0 0 127 0" result="hardAlpha"/>
<feMorphology radius="5.35743" operator="dilate" in="SourceAlpha" result="effect2_innerShadow_67_876"/>
<feOffset dy="-7.5004"/>
<feGaussianBlur stdDeviation="6.42892"/>
<feComposite in2="hardAlpha" operator="arithmetic" k2="-1" k3="1"/>
<feColorMatrix type="matrix" values="0 0 0 0 0.0818203 0 0 0 0 0.349899 0 0 0 0 0.21586 0 0 0 0.25 0"/>
<feBlend mode="normal" in2="effect1_innerShadow_67_876" result="effect2_innerShadow_67_876"/>
</filter>
<linearGradient id="paint0_linear_67_876" x1="72.6863" y1="23.4437" x2="90.2889" y2="123.247" gradientUnits="userSpaceOnUse">
<stop stop-color="#229E5E"/>
<stop offset="1" stop-color="#2B9860"/>
</linearGradient>
</defs>
</svg>
